<?xml version="1.0" encoding="UTF-8"?>
<svg xmlns="http://www.w3.org/2000/svg" xmlns:xlink="http://www.w3.org/1999/xlink" width="500pt" height="500pt" viewBox="0 0 500 500" version="1.1">
<g id="surface207477">
<path style=" stroke:none;fill-rule:nonzero;fill:rgb(78.039216%,92.941176%,90.196078%);fill-opacity:1;" d="M 436 283.5 C 441.5 272.5 445 260.5 445 247.5 C 445 214.5 424 186 395 175 C 395 117 348 70 290 70 C 241 70 200 103.5 188.5 149 C 181 146.5 173.5 145 165 145 C 126.5 145 95 174 90.5 211.5 C 64.5 217 45 240 45 267.5 C 45 299.5 70.5 325 102.5 325 C 103.5 325 104.5 325 105 325 C 105 326 105 326.5 105 327.5 C 105 384 151 430 207.5 430 C 239.5 430 268.5 415 287 392 C 298 403 313 410 330 410 C 353.5 410 373.5 396.5 383.5 377.5 C 389 379 394.5 380 400 380 C 430.5 380 455 355.5 455 325 C 455 308.5 447.5 293.5 436 283.5 Z M 436 283.5 "/>
<path style=" stroke:none;fill-rule:nonzero;fill:rgb(99.215686%,98.823529%,93.72549%);fill-opacity:1;" d="M 399.5 322.5 C 399.5 322.5 417.5 322.5 430 322.5 C 442.5 322.5 452.5 312.5 452.5 300 C 452.5 288.5 443.5 279 432 277.5 C 432 276.5 432.5 275.5 432.5 275 C 432.5 262.5 422.5 252.5 410 252.5 C 403 252.5 396.5 256 392.5 261 C 392 248 381 237.5 367.5 237.5 C 353.5 237.5 342.5 248.5 342.5 262.5 C 342.5 264.5 343 267 343.5 269 C 340 265 335.5 262.5 330 262.5 C 321 262.5 314 269 312.5 278 C 311.5 278 310.5 277.5 310 277.5 C 297.5 277.5 287.5 287.5 287.5 300 C 287.5 312.5 297.5 322.5 310 322.5 C 322.5 322.5 357.5 322.5 357.5 322.5 L 384.5 322.5 L 384.5 325 L 399.5 325 Z M 399.5 322.5 "/>
<path style=" stroke:none;fill-rule:nonzero;fill:rgb(27.843137%,16.862745%,16.078431%);fill-opacity:1;" d="M 367.5 235 C 352.5 235 340 247.5 340 262.5 C 337 260.5 333.5 260 330 260 C 321 260 313 266.5 310.5 275 L 310 275 C 296 275 285 286 285 300 C 285 314 296 325 310 325 L 384.5 325 C 386 325 387 324 387 322.5 C 387 321 386 320 384.5 320 L 310 320 C 299 320 290 311 290 300 C 290 289 299 280 310 280 C 310.5 280 311 280 311.5 280 L 312 280 C 312 280 312 280 312.5 280 C 313.5 280 315 279 315 278 C 316 270.5 322.5 265 330 265 C 334.5 265 338.5 267 341.5 270.5 C 342 271 342.5 271.5 343.5 271.5 C 344 271.5 344.5 271.5 344.5 271 C 345.5 270.5 346 269.5 346 268 C 345.5 266 345 264 345 262 C 345 249.5 355 239.5 367.5 239.5 C 379.5 239.5 389 249 390 261 C 390 262 391 263 391.5 263.5 C 392 263.5 392 263.5 392.5 263.5 C 393.5 263.5 394 263 394.5 262.5 C 398.5 257.5 404 255 410 255 C 421 255 430 264 430 275 C 430 275.5 430 276 430 276.5 L 430 277 C 430 277.5 430 278.5 430.5 279 C 431 279.5 431.5 280 432 280 C 442.5 281 450 289.5 450 300 C 450 311 441 320 430 320 L 399.5 320 C 398 320 397 321 397 322.5 C 397 324 398 325 399.5 325 L 430 325 C 444 325 455 314 455 300 C 455 288 446.5 278 435 275.5 L 435 275 C 435 261 424 250 410 250 C 404 250 398.5 252 394 256 C 391 244 380.5 235 367.5 235 Z M 367.5 235 "/>
<path style=" stroke:none;fill-rule:nonzero;fill:rgb(27.843137%,16.862745%,16.078431%);fill-opacity:1;" d="M 360 270 C 353 270 347 275 345.5 281.5 C 343.5 280.5 341.5 280 339.5 280 C 333.5 280 328.5 284.5 327.5 290.5 C 326.5 290.5 325.5 290 324.5 290 C 317 290 310.5 296 310 303.5 C 310 304 310.5 305 311 305 C 311.5 305 312 304.5 312 304 C 312.5 297.5 318 292.5 324 292.5 C 325 292.5 326.5 292.5 327.5 293 C 327.5 293 327.5 293 328 293 C 328.5 293 328.5 293 329 292.5 C 329.5 292.5 329.5 292 329.5 291.5 C 329.5 286.5 333.5 282 339 282 C 341 282 343.5 283 345 284.5 C 345 284.5 345.5 285 346 285 L 346.5 285 C 347 285 347 284.5 347.5 284 C 348 277.5 353.5 272.5 360 272.5 C 361 272.5 362 272.5 363.5 273 C 363.5 273 363.5 273 364 273 C 364.5 273 365 272.5 365 272 C 365 271.5 365 270.5 364 270.5 C 362.5 270 361.5 270 360 270 Z M 429.5 277.5 C 423 277.5 417 282 415 288.5 C 415 289 415 290 416 290 C 416 290 416 290 416.5 290 C 417 290 417.5 289.5 417.5 289 C 419 283.5 424 280 429.5 280 C 430 280 430.5 280 431 280 C 431.5 280 432 279.5 432 279 C 432 278.5 431.5 277.5 431 277.5 C 431 277.5 430 277.5 429.5 277.5 Z M 429.5 277.5 "/>
<path style=" stroke:none;fill-rule:nonzero;fill:rgb(100%,100%,100%);fill-opacity:1;" d="M 77 255 L 27.5 255 C 26 255 25 254 25 252.5 C 25 251 26 250 27.5 250 L 77 250 C 78.5 250 79.5 251 79.5 252.5 C 79.5 254 78.5 255 77 255 Z M 92.5 255 L 87.5 255 C 86 255 85 254 85 252.5 C 85 251 86 250 87.5 250 L 92.5 250 C 94 250 95 251 95 252.5 C 95 254 94 255 92.5 255 Z M 117.5 265 L 72.5 265 C 71 265 70 264 70 262.5 C 70 261 71 260 72.5 260 L 117.5 260 C 119 260 120 261 120 262.5 C 120 264 119 265 117.5 265 Z M 62.5 265 L 57.5 265 C 56 265 55 264 55 262.5 C 55 261 56 260 57.5 260 L 62.5 260 C 64 260 65 261 65 262.5 C 65 264 64 265 62.5 265 Z M 47.5 265 L 37.5 265 C 36 265 35 264 35 262.5 C 35 261 36 260 37.5 260 L 47.5 260 C 49 260 50 261 50 262.5 C 50 264 49 265 47.5 265 Z M 77.5 275 L 67.5 275 C 66 275 65 274 65 272.5 C 65 271 66 270 67.5 270 L 77.5 270 C 79 270 80 271 80 272.5 C 80 274 79 275 77.5 275 Z M 92.5 230 C 91.5 230 88.5 230 87.5 230 C 86 230 85 231 85 232.5 C 85 234 86 235 87.5 235 C 88.5 235 91.5 235 92.5 235 C 94 235 95 234 95 232.5 C 95 231 94 230 92.5 230 Z M 92.5 240 C 91.5 240 68.5 240 67.5 240 C 66 240 65 241 65 242.5 C 65 244 66 245 67.5 245 C 68.5 245 91.5 245 92.5 245 C 94 245 95 244 95 242.5 C 95 241 94 240 92.5 240 Z M 117.5 250 C 116.5 250 103.5 250 102.5 250 C 101 250 100 251 100 252.5 C 100 254 101 255 102.5 255 C 103.5 255 116.5 255 117.5 255 C 119 255 120 254 120 252.5 C 120 251 119 250 117.5 250 Z M 117.5 250 "/>
<path style=" stroke:none;fill-rule:nonzero;fill:rgb(100%,100%,100%);fill-opacity:1;" d="M 337.5 110 L 287.5 110 C 286 110 285 109 285 107.5 C 285 106 286 105 287.5 105 L 337.5 105 C 339 105 340 106 340 107.5 C 340 109 339 110 337.5 110 Z M 357.5 110 L 347.5 110 C 346 110 345 109 345 107.5 C 345 106 346 105 347.5 105 L 357.5 105 C 359 105 360 106 360 107.5 C 360 109 359 110 357.5 110 Z M 382.5 120 L 332.5 120 C 331 120 330 119 330 117.5 C 330 116 331 115 332.5 115 L 382.5 115 C 384 115 385 116 385 117.5 C 385 119 384 120 382.5 120 Z M 322.5 120 L 317.5 120 C 316 120 315 119 315 117.5 C 315 116 316 115 317.5 115 L 322.5 115 C 324 115 325 116 325 117.5 C 325 119 324 120 322.5 120 Z M 307 120 L 297.5 120 C 296 120 295 119 295 117.5 C 295 116 296 115 297.5 115 L 307 115 C 308.5 115 309.5 116 309.5 117.5 C 309.5 119 308.5 120 307 120 Z M 352.5 100 L 327.5 100 C 326 100 325 99 325 97.5 C 325 96 326 95 327.5 95 L 352.5 95 C 354 95 355 96 355 97.5 C 355 99 354 100 352.5 100 Z M 337.5 130 L 327.5 130 C 326 130 325 129 325 127.5 C 325 126 326 125 327.5 125 L 337.5 125 C 339 125 340 126 340 127.5 C 340 129 339 130 337.5 130 Z M 337.5 130 "/>
<path style=" stroke:none;fill-rule:nonzero;fill:rgb(27.843137%,16.862745%,16.078431%);fill-opacity:1;" d="M 157 345 L 152.5 345 C 151 345 150 344 150 342.5 C 150 341 151 340 152.5 340 L 157 340 C 158.5 340 159.5 341 159.5 342.5 C 159.5 344 158.5 345 157 345 Z M 157 345 "/>
<path style=" stroke:none;fill-rule:nonzero;fill:rgb(20.392157%,59.607843%,85.882353%);fill-opacity:1;" d="M 362 221.5 L 362 319 C 362 339.5 345 356.5 324.5 356.5 L 185.5 356.5 C 165 356.5 148 339.5 148 319 L 148 181 C 148 160.5 165 143.5 185.5 143.5 L 324.5 143.5 C 341.5 143.5 356 155 360.5 171 "/>
<path style=" stroke:none;fill-rule:nonzero;fill:rgb(27.843137%,16.862745%,16.078431%);fill-opacity:1;" d="M 324.5 360 L 185.5 360 C 163 360 144.5 341.5 144.5 319 L 144.5 181 C 144.5 158.5 163 140 185.5 140 L 324.5 140 C 343 140 359 152.5 364 170 C 364.5 172 363.5 174 361.5 174.5 C 359.5 175 357.5 174 357 172 C 353 157.5 339.5 147 324.5 147 L 185.5 147 C 167 147 151.5 162 151.5 181 L 151.5 318.5 C 151.5 337 166.5 352.5 185.5 352.5 L 324.5 352.5 C 343 352.5 358.5 337.5 358.5 318.5 L 358.5 221.5 C 358.5 219.5 360 218 362 218 C 364 218 365.5 219.5 365.5 221.5 L 365.5 319 C 365.5 341.5 347 360 324.5 360 Z M 324.5 360 "/>
<path style=" stroke:none;fill-rule:nonzero;fill:rgb(27.843137%,16.862745%,16.078431%);fill-opacity:1;" d="M 342.5 294.5 C 341 294.5 340 293.5 340 292 L 340 273.5 C 340 272 341 271 342.5 271 C 344 271 345 272 345 273.5 L 345 292 C 345 293.5 344 294.5 342.5 294.5 Z M 342.5 294.5 "/>
<path style=" stroke:none;fill-rule:nonzero;fill:rgb(27.843137%,16.862745%,16.078431%);fill-opacity:1;" d="M 342.5 262 C 341 262 340 261 340 259.5 L 340 250 C 340 248.5 341 247.5 342.5 247.5 C 344 247.5 345 248.5 345 250 L 345 259.5 C 345 261 344 262 342.5 262 Z M 342.5 262 "/>
<path style=" stroke:none;fill-rule:nonzero;fill:rgb(27.843137%,16.862745%,16.078431%);fill-opacity:1;" d="M 321 339.5 L 189 339.5 C 176 339.5 165 329 165 316 L 165 183.5 C 165 170.5 175.5 160 189 160 L 309 160 C 310.5 160 311.5 161 311.5 162.5 C 311.5 164 310 165 309 165 L 189 165 C 178.5 165 170 173.5 170 183.5 L 170 315.5 C 170 326 178.5 334 189 334 L 321.5 334 C 332 334 340.5 325.5 340.5 315.5 L 340.5 304.5 C 340.5 303 341.5 302 343 302 C 344.5 302 345.5 303 345.5 304.5 L 345.5 315.5 C 345 329 334.5 339.5 321 339.5 Z M 321 339.5 "/>
<path style=" stroke:none;fill-rule:nonzero;fill:rgb(100%,100%,100%);fill-opacity:1;" d="M 254 307.5 C 253.5 307.5 253 307.5 253 307.5 C 251 307.5 249.5 307 248 305.5 L 208.5 267 C 207 265.5 206.5 264 206.5 262 C 206.5 260 207 258.5 208.5 257 C 210 255.5 211.5 255 213.5 255 C 215.5 255 217 255.5 218.5 257 L 252.5 292 L 366.5 183 C 368 181.5 369.5 181 371.5 181 C 373.5 181 375 181.5 376.5 183 C 378 184.5 378.5 186 378.5 188 C 378.5 190 378 191.5 376.5 193 L 259.5 305.5 C 259 306 258.5 306.5 257.5 307 C 257.5 307 257 307 257 307.5 C 256.5 307.5 256 307.5 255.5 308 C 255 307.5 254.5 307.5 254 307.5 Z M 254 307.5 "/>
<path style=" stroke:none;fill-rule:nonzero;fill:rgb(27.843137%,16.862745%,16.078431%);fill-opacity:1;" d="M 371 183 C 372 183 373.5 183.5 374.5 184.5 C 376.5 186.5 376.5 189 374.5 191 L 257.5 303.5 C 257 304 256.5 304 256.5 304.5 L 256 304.5 C 255.5 304.5 255.5 304.5 255 304.5 L 254 304.5 C 253.5 304.5 253.5 304.5 253 304.5 C 252 304.5 250.5 304 250 303 L 210 265 C 208 263 208 260.5 210 258.5 C 211 257.5 212 257 213.5 257 C 215 257 216 257.5 217 258.5 L 252.5 295 L 368 184 C 369 183.5 370 183 371 183 M 371 178 C 368.5 178 366 179 364 181 L 252.5 288 L 220.5 255 C 218.5 253 216 252 213.5 252 C 211 252 208.5 253 206.5 255 C 204.5 257 203.5 259 203.5 262 C 203.5 264.5 204.5 267 206.5 269 L 246 307.5 C 248 309 250 310 252.5 310 L 253 310 C 253.5 310 253.5 310 254 310 C 254.5 310 255 310 255.5 310 C 256 310 256.5 310 257 309.5 C 257.5 309.5 258 309 258 309 C 259 308.5 260 308 260.5 307 L 377.5 194 C 379.5 192 380.5 190 380.5 187 C 380.5 184 379.5 182 377.5 180 C 376 179 374 178 371 178 Z M 371 178 "/>
<path style=" stroke:none;fill-rule:nonzero;fill:rgb(99.215686%,98.823529%,93.72549%);fill-opacity:1;" d="M 187.5 382.5 C 187.5 382.5 195.5 382.5 205 382.5 C 214.5 382.5 222.5 374.5 222.5 365 C 222.5 356 216 349 207 347.5 C 207 346.5 207.5 345.5 207.5 345 C 207.5 335.5 199.5 327.5 190 327.5 C 185 327.5 180 330 177 333.5 C 175 324.5 167 317.5 157.5 317.5 C 146.5 317.5 137.5 326.5 137.5 337.5 C 137.5 338.5 137.5 339.5 138 340.5 C 136 339 133 337.5 130 337.5 C 124 337.5 119 342 117.5 348 C 116.5 348 115.5 347.5 115 347.5 C 105.5 347.5 97.5 355.5 97.5 365 C 97.5 374.5 105.5 382.5 115 382.5 C 124.5 382.5 152.5 382.5 152.5 382.5 L 152.5 385 L 187.5 385 Z M 187.5 382.5 "/>
<path style=" stroke:none;fill-rule:nonzero;fill:rgb(27.843137%,16.862745%,16.078431%);fill-opacity:1;" d="M 196.5 360 C 196 360 195 359.5 195 358.5 C 195 352.5 200 347.5 206 347.5 C 206 347.5 209.5 347.5 212 348 C 212.5 348 213 349 213 349.5 C 213 350 212 350.5 211.5 350.5 C 209.5 350 206 350 206 350 C 201.5 350 197.5 354 197.5 358.5 C 197.5 359.5 197 360 196.5 360 Z M 162.5 380 C 161.121094 380 160 381.121094 160 382.5 C 160 383.878906 161.121094 385 162.5 385 C 163.878906 385 165 383.878906 165 382.5 C 165 381.121094 163.878906 380 162.5 380 Z M 162.5 380 "/>
<path style=" stroke:none;fill-rule:nonzero;fill:rgb(27.843137%,16.862745%,16.078431%);fill-opacity:1;" d="M 205 385 L 187.5 385 C 186 385 185 384 185 382.5 C 185 381 186 380 187.5 380 L 205 380 C 213.5 380 220 373.5 220 365 C 220 357.5 214.5 351 207 350 C 206.5 350 205.5 349.5 205.5 349 C 205.5 348.5 205 348 205 347 C 205 346 205 345.5 205 344.5 C 205 336 198.5 329.5 190 329.5 C 186 329.5 182 331.5 179 334.5 C 178.5 335 177.5 335.5 176.5 335 C 175.5 335 175 334 174.5 333 C 173 325 165.5 319 157.5 319 C 148 319 140 327 140 336.5 C 140 337 140 338 140 338.5 C 140 339.5 139.5 340.5 139 341 C 138.5 341.5 137 341.5 136 341 C 134.5 341 132 340 130 340 C 125 340 121 343.5 120 348 C 120 349.5 118.5 350 117 350 C 116 350 115.5 350 114.5 350 C 106 350 99.5 356.5 99.5 365 C 99.5 373.5 106 380 114.5 380 L 152 380 C 153.5 380 154.5 381 154.5 382.5 C 154.5 384 154 385 152.5 385 L 115 385 C 104 385 95 376 95 365 C 95 354 104 345 115 345 C 115.5 345 115.5 345 116 345 C 118 339 123.5 335 130 335 C 131.5 335 133.5 335.5 135 336 C 136 324.5 145.5 315 157.5 315 C 166.5 315 175 320.5 178.5 329 C 182 326.5 186 325 190 325 C 201 325 210 334 210 345 L 210 345.5 C 218.5 347.5 225 355.5 225 365 C 225 376 216 385 205 385 Z M 205 385 "/>
<path style=" stroke:none;fill-rule:nonzero;fill:rgb(27.843137%,16.862745%,16.078431%);fill-opacity:1;" d="M 177.5 380 C 176.5 380 173.5 380 172.5 380 C 171 380 170 381 170 382.5 C 170 384 171 385 172.5 385 C 173.5 385 176.5 385 177.5 385 C 179 385 180 384 180 382.5 C 180 381 179 380 177.5 380 Z M 177.5 380 "/>
</g>
</svg>
